<mxfile host="65bd71144e">
    <diagram id="IR0-oYXNP4bLCSk_ilNy" name="Menu">
        <mxGraphModel dx="785" dy="863" grid="1" gridSize="10" guides="1" tooltips="1" connect="1" arrows="1" fold="1" page="1" pageScale="1" pageWidth="827" pageHeight="1169" math="0" shadow="0">
            <root>
                <mxCell id="0"/>
                <mxCell id="1" parent="0"/>
                <mxCell id="2" value="Web Pag - Main" style="swimlane;fillColor=#a20025;strokeColor=#6F0000;fontColor=#ffffff;startSize=20;" parent="1" vertex="1">
                    <mxGeometry x="40" y="40" width="760" height="800" as="geometry"/>
                </mxCell>
                <mxCell id="3" value="Menu" style="swimlane;fillColor=#0050ef;strokeColor=#001DBC;fontColor=#ffffff;" parent="2" vertex="1">
                    <mxGeometry y="20" width="140" height="780" as="geometry"/>
                </mxCell>
                <mxCell id="21" value="" style="group" parent="3" vertex="1" connectable="0">
                    <mxGeometry y="130" width="140" height="635" as="geometry"/>
                </mxCell>
                <mxCell id="8" value="" style="strokeColor=#999999;verticalLabelPosition=bottom;shadow=0;dashed=0;verticalAlign=top;strokeWidth=2;html=1;shape=mxgraph.mockup.misc.copyrightIcon;" parent="21" vertex="1">
                    <mxGeometry x="57.5" y="610" width="25" height="25" as="geometry"/>
                </mxCell>
                <mxCell id="10" value="" style="strokeWidth=1;shadow=0;dashed=0;align=center;html=1;shape=mxgraph.mockup.rrect;rSize=10;strokeColor=#666666;" parent="21" vertex="1">
                    <mxGeometry y="120" width="140" height="300" as="geometry"/>
                </mxCell>
                <mxCell id="11" value="About" style="strokeColor=inherit;fillColor=inherit;gradientColor=inherit;strokeWidth=1;shadow=0;dashed=0;align=center;html=1;shape=mxgraph.mockup.rrect;rSize=0;fontSize=17;fontColor=#666666;fontStyle=1;resizeWidth=1;" parent="10" vertex="1">
                    <mxGeometry width="140" height="50" relative="1" as="geometry">
                        <mxPoint y="50" as="offset"/>
                    </mxGeometry>
                </mxCell>
                <mxCell id="12" value="Resume" style="strokeColor=inherit;fillColor=inherit;gradientColor=inherit;strokeWidth=1;shadow=0;dashed=0;align=center;html=1;shape=mxgraph.mockup.rrect;rSize=0;fontSize=17;fontColor=#666666;fontStyle=1;resizeWidth=1;" parent="10" vertex="1">
                    <mxGeometry width="140" height="50" relative="1" as="geometry">
                        <mxPoint y="100" as="offset"/>
                    </mxGeometry>
                </mxCell>
                <mxCell id="14" value="Home" style="strokeWidth=1;shadow=0;dashed=0;align=center;html=1;shape=mxgraph.mockup.topButton;rSize=10;fontSize=17;fontColor=#ffffff;fontStyle=1;fillColor=#008cff;strokeColor=#008cff;resizeWidth=1;" parent="10" vertex="1">
                    <mxGeometry width="140" height="50" relative="1" as="geometry"/>
                </mxCell>
                <mxCell id="13" value="Contact" style="strokeColor=inherit;fillColor=inherit;gradientColor=inherit;strokeWidth=1;shadow=0;dashed=0;align=center;html=1;shape=mxgraph.mockup.bottomButton;rSize=10;fontSize=17;fontColor=#666666;fontStyle=1;resizeWidth=1;" parent="10" vertex="1">
                    <mxGeometry y="1" width="140" height="50" relative="1" as="geometry">
                        <mxPoint y="-50" as="offset"/>
                    </mxGeometry>
                </mxCell>
                <mxCell id="16" value="Projects" style="strokeColor=inherit;fillColor=inherit;gradientColor=inherit;strokeWidth=1;shadow=0;dashed=0;align=center;html=1;shape=mxgraph.mockup.rrect;rSize=0;fontSize=17;fontColor=#666666;fontStyle=1;resizeWidth=1;" parent="10" vertex="1">
                    <mxGeometry width="140" height="50" relative="1" as="geometry">
                        <mxPoint y="148" as="offset"/>
                    </mxGeometry>
                </mxCell>
                <mxCell id="17" value="Recomendations" style="strokeColor=inherit;fillColor=inherit;gradientColor=inherit;strokeWidth=1;shadow=0;dashed=0;align=center;html=1;shape=mxgraph.mockup.rrect;rSize=0;fontSize=17;fontColor=#666666;fontStyle=1;resizeWidth=1;" parent="10" vertex="1">
                    <mxGeometry y="199.9961904761905" width="140" height="47.61904761904761" as="geometry"/>
                </mxCell>
                <mxCell id="18" value="Full Stack&lt;br&gt;Web Developer" style="strokeWidth=1;shadow=0;dashed=0;align=center;html=1;shape=mxgraph.mockup.text.textBox;align=left;fontSize=17;spacingLeft=4;spacingTop=-3;mainText=;" parent="21" vertex="1">
                    <mxGeometry width="140" height="50" as="geometry"/>
                </mxCell>
                <mxCell id="19" value="&lt;ul&gt;&lt;li&gt;Icon LinkedIn&lt;/li&gt;&lt;li&gt;Icon GitHub&lt;/li&gt;&lt;li&gt;Icon Twitter&lt;/li&gt;&lt;/ul&gt;" style="text;strokeColor=none;fillColor=none;html=1;whiteSpace=wrap;verticalAlign=middle;overflow=hidden;" parent="21" vertex="1">
                    <mxGeometry y="480" width="140" height="80" as="geometry"/>
                </mxCell>
                <mxCell id="7" value="ICON - JR2" style="verticalLabelPosition=middle;shadow=0;dashed=0;align=center;html=1;verticalAlign=middle;strokeWidth=1;shape=mxgraph.mockup.graphics.simpleIcon;strokeColor=#314354;fillColor=#647687;fontColor=#ffffff;labelPosition=center;" parent="3" vertex="1">
                    <mxGeometry y="20" width="140" height="80" as="geometry"/>
                </mxCell>
                <mxCell id="5" value="Container" style="swimlane;" parent="2" vertex="1">
                    <mxGeometry x="140" y="20" width="620" height="780" as="geometry"/>
                </mxCell>
            </root>
        </mxGraphModel>
    </diagram>
    <diagram name="About" id="Hk-5tGy8aKRYwgjMn55X">
        <mxGraphModel dx="785" dy="863" grid="1" gridSize="10" guides="1" tooltips="1" connect="1" arrows="1" fold="1" page="1" pageScale="1" pageWidth="827" pageHeight="1169" math="0" shadow="0">
            <root>
                <mxCell id="nXquiS0ziOtEOEFLLR2s-0"/>
                <mxCell id="nXquiS0ziOtEOEFLLR2s-1" parent="nXquiS0ziOtEOEFLLR2s-0"/>
                <mxCell id="nXquiS0ziOtEOEFLLR2s-2" value="Web Pag - Main" style="swimlane;fillColor=#a20025;strokeColor=#6F0000;fontColor=#ffffff;startSize=20;" parent="nXquiS0ziOtEOEFLLR2s-1" vertex="1">
                    <mxGeometry x="40" y="40" width="760" height="800" as="geometry"/>
                </mxCell>
                <mxCell id="nXquiS0ziOtEOEFLLR2s-3" value="Menu" style="swimlane;fillColor=#0050ef;strokeColor=#001DBC;fontColor=#ffffff;" parent="nXquiS0ziOtEOEFLLR2s-2" vertex="1">
                    <mxGeometry y="20" width="140" height="780" as="geometry"/>
                </mxCell>
                <mxCell id="nXquiS0ziOtEOEFLLR2s-4" value="" style="group" parent="nXquiS0ziOtEOEFLLR2s-3" vertex="1" connectable="0">
                    <mxGeometry y="130" width="140" height="635" as="geometry"/>
                </mxCell>
                <mxCell id="nXquiS0ziOtEOEFLLR2s-5" value="" style="strokeColor=#999999;verticalLabelPosition=bottom;shadow=0;dashed=0;verticalAlign=top;strokeWidth=2;html=1;shape=mxgraph.mockup.misc.copyrightIcon;" parent="nXquiS0ziOtEOEFLLR2s-4" vertex="1">
                    <mxGeometry x="57.5" y="610" width="25" height="25" as="geometry"/>
                </mxCell>
                <mxCell id="nXquiS0ziOtEOEFLLR2s-6" value="" style="strokeWidth=1;shadow=0;dashed=0;align=center;html=1;shape=mxgraph.mockup.rrect;rSize=10;strokeColor=#666666;" parent="nXquiS0ziOtEOEFLLR2s-4" vertex="1">
                    <mxGeometry y="120" width="140" height="300" as="geometry"/>
                </mxCell>
                <mxCell id="nXquiS0ziOtEOEFLLR2s-7" value="About" style="strokeColor=#006EAF;fillColor=#1ba1e2;strokeWidth=1;shadow=0;dashed=0;align=center;html=1;shape=mxgraph.mockup.rrect;rSize=0;fontSize=17;fontColor=#ffffff;fontStyle=1;resizeWidth=1;" parent="nXquiS0ziOtEOEFLLR2s-6" vertex="1">
                    <mxGeometry width="140" height="50" relative="1" as="geometry">
                        <mxPoint y="50" as="offset"/>
                    </mxGeometry>
                </mxCell>
                <mxCell id="nXquiS0ziOtEOEFLLR2s-8" value="Resume" style="strokeColor=inherit;fillColor=inherit;gradientColor=inherit;strokeWidth=1;shadow=0;dashed=0;align=center;html=1;shape=mxgraph.mockup.rrect;rSize=0;fontSize=17;fontColor=#666666;fontStyle=1;resizeWidth=1;" parent="nXquiS0ziOtEOEFLLR2s-6" vertex="1">
                    <mxGeometry width="140" height="50" relative="1" as="geometry">
                        <mxPoint y="100" as="offset"/>
                    </mxGeometry>
                </mxCell>
                <mxCell id="nXquiS0ziOtEOEFLLR2s-9" value="Home" style="strokeWidth=1;shadow=0;dashed=0;align=center;html=1;shape=mxgraph.mockup.topButton;rSize=10;fontSize=17;fontStyle=1;resizeWidth=1;" parent="nXquiS0ziOtEOEFLLR2s-6" vertex="1">
                    <mxGeometry width="140" height="50" relative="1" as="geometry"/>
                </mxCell>
                <mxCell id="nXquiS0ziOtEOEFLLR2s-10" value="Contact" style="strokeColor=inherit;fillColor=inherit;gradientColor=inherit;strokeWidth=1;shadow=0;dashed=0;align=center;html=1;shape=mxgraph.mockup.bottomButton;rSize=10;fontSize=17;fontColor=#666666;fontStyle=1;resizeWidth=1;" parent="nXquiS0ziOtEOEFLLR2s-6" vertex="1">
                    <mxGeometry y="1" width="140" height="50" relative="1" as="geometry">
                        <mxPoint y="-50" as="offset"/>
                    </mxGeometry>
                </mxCell>
                <mxCell id="nXquiS0ziOtEOEFLLR2s-11" value="Projects" style="strokeColor=inherit;fillColor=inherit;gradientColor=inherit;strokeWidth=1;shadow=0;dashed=0;align=center;html=1;shape=mxgraph.mockup.rrect;rSize=0;fontSize=17;fontColor=#666666;fontStyle=1;resizeWidth=1;" parent="nXquiS0ziOtEOEFLLR2s-6" vertex="1">
                    <mxGeometry width="140" height="50" relative="1" as="geometry">
                        <mxPoint y="148" as="offset"/>
                    </mxGeometry>
                </mxCell>
                <mxCell id="nXquiS0ziOtEOEFLLR2s-12" value="Recomendations" style="strokeColor=inherit;fillColor=inherit;gradientColor=inherit;strokeWidth=1;shadow=0;dashed=0;align=center;html=1;shape=mxgraph.mockup.rrect;rSize=0;fontSize=17;fontColor=#666666;fontStyle=1;resizeWidth=1;" parent="nXquiS0ziOtEOEFLLR2s-6" vertex="1">
                    <mxGeometry y="199.9961904761905" width="140" height="47.61904761904761" as="geometry"/>
                </mxCell>
                <mxCell id="nXquiS0ziOtEOEFLLR2s-13" value="Full Stack&lt;br&gt;Web Developer" style="strokeWidth=1;shadow=0;dashed=0;align=center;html=1;shape=mxgraph.mockup.text.textBox;align=left;fontSize=17;spacingLeft=4;spacingTop=-3;mainText=;" parent="nXquiS0ziOtEOEFLLR2s-4" vertex="1">
                    <mxGeometry width="140" height="50" as="geometry"/>
                </mxCell>
                <mxCell id="nXquiS0ziOtEOEFLLR2s-14" value="&lt;ul&gt;&lt;li&gt;Icon LinkedIn&lt;/li&gt;&lt;li&gt;Icon GitHub&lt;/li&gt;&lt;li&gt;Icon Twitter&lt;/li&gt;&lt;/ul&gt;" style="text;strokeColor=none;fillColor=none;html=1;whiteSpace=wrap;verticalAlign=middle;overflow=hidden;" parent="nXquiS0ziOtEOEFLLR2s-4" vertex="1">
                    <mxGeometry y="480" width="140" height="80" as="geometry"/>
                </mxCell>
                <mxCell id="nXquiS0ziOtEOEFLLR2s-15" value="ICON - JR2" style="verticalLabelPosition=middle;shadow=0;dashed=0;align=center;html=1;verticalAlign=middle;strokeWidth=1;shape=mxgraph.mockup.graphics.simpleIcon;strokeColor=#314354;labelBackgroundColor=none;labelBorderColor=none;labelPosition=center;fontColor=#ffffff;fillColor=#647687;" parent="nXquiS0ziOtEOEFLLR2s-3" vertex="1">
                    <mxGeometry y="20" width="140" height="80" as="geometry"/>
                </mxCell>
                <mxCell id="nXquiS0ziOtEOEFLLR2s-16" value="Container" style="swimlane;" parent="nXquiS0ziOtEOEFLLR2s-2" vertex="1">
                    <mxGeometry x="140" y="20" width="620" height="780" as="geometry"/>
                </mxCell>
                <mxCell id="z5HRJ_PuQ8KHgq6dvx6q-11" value="DONWLOAD RESUME" style="strokeWidth=1;shadow=0;dashed=0;align=center;html=1;shape=mxgraph.mockup.text.textBox;align=left;fontSize=17;spacingLeft=4;spacingTop=-3;mainText=;fontStyle=0" vertex="1" parent="nXquiS0ziOtEOEFLLR2s-16">
                    <mxGeometry x="20" y="460" width="240" height="40" as="geometry"/>
                </mxCell>
                <mxCell id="z5HRJ_PuQ8KHgq6dvx6q-13" value="" style="verticalLabelPosition=bottom;shadow=0;dashed=0;align=center;html=1;verticalAlign=top;strokeWidth=1;shape=mxgraph.mockup.containers.userMale;strokeColor=#666666;strokeColor2=#008cff;labelBackgroundColor=none;fontColor=#FFFFFF;gradientColor=none;" vertex="1" parent="nXquiS0ziOtEOEFLLR2s-16">
                    <mxGeometry x="20" y="60" width="240" height="360" as="geometry"/>
                </mxCell>
                <mxCell id="z5HRJ_PuQ8KHgq6dvx6q-12" value="Title" style="strokeWidth=1;shadow=0;dashed=0;align=center;html=1;shape=mxgraph.mockup.text.textBox;fontColor=#666666;align=left;fontSize=17;spacingLeft=4;spacingTop=-3;strokeColor=#666666;mainText=;labelBackgroundColor=none;gradientColor=none;" vertex="1" parent="nXquiS0ziOtEOEFLLR2s-16">
                    <mxGeometry x="300" y="60" width="200" height="40" as="geometry"/>
                </mxCell>
                <mxCell id="z5HRJ_PuQ8KHgq6dvx6q-14" value="Subtitle" style="strokeWidth=1;shadow=0;dashed=0;align=center;html=1;shape=mxgraph.mockup.text.textBox;fontColor=#666666;align=left;fontSize=17;spacingLeft=4;spacingTop=-3;strokeColor=#666666;mainText=;labelBackgroundColor=none;gradientColor=none;" vertex="1" parent="nXquiS0ziOtEOEFLLR2s-16">
                    <mxGeometry x="300" y="110" width="160" height="30" as="geometry"/>
                </mxCell>
                <mxCell id="z5HRJ_PuQ8KHgq6dvx6q-19" value="Description" style="strokeWidth=1;shadow=0;dashed=0;align=center;html=1;shape=mxgraph.mockup.text.textBox;fontColor=#666666;align=left;fontSize=17;spacingLeft=4;spacingTop=-3;strokeColor=#666666;mainText=;labelBackgroundColor=none;gradientColor=none;" vertex="1" parent="nXquiS0ziOtEOEFLLR2s-16">
                    <mxGeometry x="300" y="160" width="300" height="80" as="geometry"/>
                </mxCell>
                <mxCell id="z5HRJ_PuQ8KHgq6dvx6q-20" value="Name" style="strokeWidth=1;shadow=0;dashed=0;align=center;html=1;shape=mxgraph.mockup.text.textBox;fontColor=#666666;align=left;fontSize=17;spacingLeft=4;spacingTop=-3;strokeColor=#666666;mainText=;labelBackgroundColor=none;gradientColor=none;" vertex="1" parent="nXquiS0ziOtEOEFLLR2s-16">
                    <mxGeometry x="300" y="260" width="140" height="20" as="geometry"/>
                </mxCell>
                <mxCell id="z5HRJ_PuQ8KHgq6dvx6q-21" value="Address" style="strokeWidth=1;shadow=0;dashed=0;align=center;html=1;shape=mxgraph.mockup.text.textBox;fontColor=#666666;align=left;fontSize=17;spacingLeft=4;spacingTop=-3;strokeColor=#666666;mainText=;labelBackgroundColor=none;gradientColor=none;" vertex="1" parent="nXquiS0ziOtEOEFLLR2s-16">
                    <mxGeometry x="460" y="260" width="140" height="20" as="geometry"/>
                </mxCell>
                <mxCell id="z5HRJ_PuQ8KHgq6dvx6q-22" value="Birthday" style="strokeWidth=1;shadow=0;dashed=0;align=center;html=1;shape=mxgraph.mockup.text.textBox;fontColor=#666666;align=left;fontSize=17;spacingLeft=4;spacingTop=-3;strokeColor=#666666;mainText=;labelBackgroundColor=none;gradientColor=none;" vertex="1" parent="nXquiS0ziOtEOEFLLR2s-16">
                    <mxGeometry x="300" y="290" width="140" height="20" as="geometry"/>
                </mxCell>
                <mxCell id="z5HRJ_PuQ8KHgq6dvx6q-23" value="Nationality" style="strokeWidth=1;shadow=0;dashed=0;align=center;html=1;shape=mxgraph.mockup.text.textBox;fontColor=#666666;align=left;fontSize=17;spacingLeft=4;spacingTop=-3;strokeColor=#666666;mainText=;labelBackgroundColor=none;gradientColor=none;" vertex="1" parent="nXquiS0ziOtEOEFLLR2s-16">
                    <mxGeometry x="300" y="320" width="140" height="20" as="geometry"/>
                </mxCell>
                <mxCell id="z5HRJ_PuQ8KHgq6dvx6q-25" value="Phone" style="strokeWidth=1;shadow=0;dashed=0;align=center;html=1;shape=mxgraph.mockup.text.textBox;fontColor=#666666;align=left;fontSize=17;spacingLeft=4;spacingTop=-3;strokeColor=#666666;mainText=;labelBackgroundColor=none;gradientColor=none;" vertex="1" parent="nXquiS0ziOtEOEFLLR2s-16">
                    <mxGeometry x="460" y="320" width="140" height="20" as="geometry"/>
                </mxCell>
                <mxCell id="z5HRJ_PuQ8KHgq6dvx6q-26" value="Website" style="strokeWidth=1;shadow=0;dashed=0;align=center;html=1;shape=mxgraph.mockup.text.textBox;fontColor=#666666;align=left;fontSize=17;spacingLeft=4;spacingTop=-3;strokeColor=#666666;mainText=;labelBackgroundColor=none;gradientColor=none;" vertex="1" parent="nXquiS0ziOtEOEFLLR2s-16">
                    <mxGeometry x="460" y="350" width="140" height="20" as="geometry"/>
                </mxCell>
                <mxCell id="z5HRJ_PuQ8KHgq6dvx6q-28" value="Social Links" style="strokeWidth=1;shadow=0;dashed=0;align=center;html=1;shape=mxgraph.mockup.text.textBox;fontColor=#666666;align=left;fontSize=17;spacingLeft=4;spacingTop=-3;strokeColor=#666666;mainText=;labelBackgroundColor=none;gradientColor=none;" vertex="1" parent="nXquiS0ziOtEOEFLLR2s-16">
                    <mxGeometry x="300" y="420" width="160" height="30" as="geometry"/>
                </mxCell>
                <mxCell id="z5HRJ_PuQ8KHgq6dvx6q-29" value="LinkedIn" style="verticalLabelPosition=middle;shadow=0;dashed=0;align=center;html=1;verticalAlign=middle;strokeWidth=1;shape=mxgraph.mockup.graphics.simpleIcon;labelBackgroundColor=none;labelBorderColor=none;labelPosition=center;fillColor=#f5f5f5;strokeColor=#666666;gradientColor=#b3b3b3;fontColor=#1111F0;" vertex="1" parent="nXquiS0ziOtEOEFLLR2s-16">
                    <mxGeometry x="300" y="460" width="40" height="40" as="geometry"/>
                </mxCell>
                <mxCell id="z5HRJ_PuQ8KHgq6dvx6q-33" value="GitHub" style="verticalLabelPosition=middle;shadow=0;dashed=0;align=center;html=1;verticalAlign=middle;strokeWidth=1;shape=mxgraph.mockup.graphics.simpleIcon;labelBackgroundColor=none;labelBorderColor=none;labelPosition=center;fillColor=#f5f5f5;strokeColor=#666666;gradientColor=#b3b3b3;fontColor=#1111F0;" vertex="1" parent="nXquiS0ziOtEOEFLLR2s-16">
                    <mxGeometry x="360" y="460" width="40" height="40" as="geometry"/>
                </mxCell>
                <mxCell id="hQcqBPpFG1XvLBfjd8JW-0" value="learn more about me" style="html=1;shadow=0;dashed=0;shape=mxgraph.bootstrap.rrect;rSize=5;strokeColor=none;strokeWidth=1;fillColor=none;fontColor=#0085FC;whiteSpace=wrap;align=center;verticalAlign=middle;spacingLeft=0;fontStyle=0;fontSize=16;spacing=5;labelBackgroundColor=none;" vertex="1" parent="nXquiS0ziOtEOEFLLR2s-16">
                    <mxGeometry x="430" y="505" width="170" height="40" as="geometry"/>
                </mxCell>
                <mxCell id="z5HRJ_PuQ8KHgq6dvx6q-24" value="Email" style="strokeWidth=1;shadow=0;dashed=0;align=center;html=1;shape=mxgraph.mockup.text.textBox;fontColor=#666666;align=left;fontSize=17;spacingLeft=4;spacingTop=-3;strokeColor=#666666;mainText=;labelBackgroundColor=none;gradientColor=none;" vertex="1" parent="nXquiS0ziOtEOEFLLR2s-1">
                    <mxGeometry x="640" y="350" width="140" height="20" as="geometry"/>
                </mxCell>
                <mxCell id="z5HRJ_PuQ8KHgq6dvx6q-34" value="Twitter" style="verticalLabelPosition=middle;shadow=0;dashed=0;align=center;html=1;verticalAlign=middle;strokeWidth=1;shape=mxgraph.mockup.graphics.simpleIcon;labelBackgroundColor=none;labelBorderColor=none;labelPosition=center;fillColor=#f5f5f5;strokeColor=#666666;gradientColor=#b3b3b3;fontColor=#1111F0;" vertex="1" parent="nXquiS0ziOtEOEFLLR2s-1">
                    <mxGeometry x="600" y="520" width="40" height="40" as="geometry"/>
                </mxCell>
            </root>
        </mxGraphModel>
    </diagram>
</mxfile>